<?xml version="1.0" encoding="UTF-8" standalone="no"?>
<!-- Created with Inkscape (http://www.inkscape.org/) -->

<svg
   xmlns:dc="http://purl.org/dc/elements/1.1/"
   xmlns:cc="http://creativecommons.org/ns#"
   xmlns:rdf="http://www.w3.org/1999/02/22-rdf-syntax-ns#"
   xmlns:svg="http://www.w3.org/2000/svg"
   xmlns="http://www.w3.org/2000/svg"
   xmlns:sodipodi="http://sodipodi.sourceforge.net/DTD/sodipodi-0.dtd"
   xmlns:inkscape="http://www.inkscape.org/namespaces/inkscape"
   width="210mm"
   height="297mm"
   viewBox="0 0 210 297"
   version="1.1"
   id="svg8"
   inkscape:version="0.92.4 (5da689c313, 2019-01-14)"
   sodipodi:docname="icon.svg">
  <defs
     id="defs2">
    <inkscape:perspective
       sodipodi:type="inkscape:persp3d"
       inkscape:vp_x="0 : 148.5 : 1"
       inkscape:vp_y="0 : 1000 : 0"
       inkscape:vp_z="210 : 148.5 : 1"
       inkscape:persp3d-origin="105 : 99 : 1"
       id="perspective3742" />
  </defs>
  <sodipodi:namedview
     id="base"
     pagecolor="#ffffff"
     bordercolor="#666666"
     borderopacity="1.0"
     inkscape:pageopacity="0.0"
     inkscape:pageshadow="2"
     inkscape:zoom="2.8284271"
     inkscape:cx="313.56213"
     inkscape:cy="672.7928"
     inkscape:document-units="mm"
     inkscape:current-layer="layer1"
     showgrid="false"
     inkscape:window-width="1920"
     inkscape:window-height="1017"
     inkscape:window-x="-8"
     inkscape:window-y="-8"
     inkscape:window-maximized="1" />
  <metadata
     id="metadata5">
    <rdf:RDF>
      <cc:Work
         rdf:about="">
        <dc:format>image/svg+xml</dc:format>
        <dc:type
           rdf:resource="http://purl.org/dc/dcmitype/StillImage" />
        <dc:title />
      </cc:Work>
    </rdf:RDF>
  </metadata>
  <g
     inkscape:label="Vrstva 1"
     inkscape:groupmode="layer"
     id="layer1">
    <rect
       style="fill:#afe9c6;fill-opacity:1;stroke-width:0.26458332"
       id="rect91"
       width="33.866665"
       height="30.030209"
       x="56.554688"
       y="106.10313" />
    <rect
       style="fill:#ffffff;fill-opacity:1;stroke-width:0.23780677"
       id="rect93"
       width="30.294792"
       height="27.119785"
       x="58.340622"
       y="107.29376" />
    <g
       aria-label="M"
       style="font-style:normal;font-weight:normal;font-size:10.58333302px;line-height:1.25;font-family:sans-serif;letter-spacing:0px;word-spacing:0px;fill:#000000;fill-opacity:1;stroke:none;stroke-width:0.26458332"
       id="text3715"
       transform="matrix(1.3116378,0,0,1.3294493,-15.367002,-43.215815)">
      <path
         d="m 72.685007,128.95807 h -1.522358 v -10.68279 l -3.050878,2.4276 h -1.57389 l -2.625651,-2.4276 v 10.68279 h -1.422404 v -11.21395 c -0.0294,-1.40344 -0.194891,-1.18409 1.161376,-1.18409 h 0.914566 l 2.859072,2.76771 2.8537,-2.51073 c 0.237049,-0.27933 0.407058,-0.25832 0.755316,-0.26237 l 0.680169,-0.008 c 1.015149,-0.0536 0.971023,-0.0135 0.969569,0.93036 z"
         style="font-style:normal;font-variant:normal;font-weight:normal;font-stretch:normal;font-family:CityBlueprint;-inkscape-font-specification:CityBlueprint;stroke-width:0.4096612"
         id="path3729"
         inkscape:connector-curvature="0"
         sodipodi:nodetypes="ccccccccccccccccc" />
    </g>
    <text
       xml:space="preserve"
       style="font-style:normal;font-weight:normal;font-size:10.58333302px;line-height:1.25;font-family:sans-serif;letter-spacing:0px;word-spacing:0px;fill:#000000;fill-opacity:1;stroke:none;stroke-width:0.26458332"
       x="71.8955"
       y="124.07661"
       id="text3719"><tspan
         sodipodi:role="line"
         id="tspan3717"
         x="71.8955"
         y="133.7321"
         style="stroke-width:0.26458332" /></text>
    <g
       id="g3931"
       transform="translate(-12.736519,0.57077432)"
       style="fill:#89a02c;fill-opacity:1">
      <g
         id="g3922"
         style="fill:#89a02c;fill-opacity:1">
        <g
           id="g3925"
           style="fill:#89a02c;fill-opacity:1">
          <path
             sodipodi:nodetypes="cccccccscccccccccccccccccccccccccccccccccccccccccccccscc"
             inkscape:connector-curvature="0"
             d="m 88.320163,112.60094 -2.513677,2.25265 -0.13666,1.82818 h 1.037664 l 1.611351,-1.2988 z m -5.11582,-0.16749 c -5.29e-4,5.3e-4 -0.0016,0.001 -0.0021,0.002 -0.0024,0.004 -0.0042,0.006 -0.0062,0.009 -5.29e-4,10e-4 -0.0021,0.004 -0.0026,0.005 0.005,-0.008 0.0074,-0.0114 0.01085,-0.0165 z m -3.86488,13.16095 c 2.65e-4,0.004 -0.0013,-0.007 -5.29e-4,0.003 -1.4e-4,-5.3e-4 -5.29e-4,-10e-4 -5.29e-4,-0.002 v 0.0987 c 0.004,-0.0136 0.0092,-0.0268 0.01344,-0.0403 5.29e-4,-0.002 0.0013,-0.004 0.0021,-0.006 -0.0046,-0.0189 -0.01193,-0.0451 -0.01291,-0.0496 -7.94e-4,-0.002 -0.0011,-0.003 -0.0016,-0.004 z m 0.077,1.59009 c 0.02379,-0.0139 -0.04047,0.0128 -0.07803,0.0274 v 0.0108 c 0.02603,-0.0128 0.053,-0.0236 0.07803,-0.0382 z m -0.07803,0.0382 v 0.006 c 0.0048,0.004 0.0091,0.008 0.02273,0.0108 0.0075,-0.007 0.0094,-0.008 0.01551,-0.0139 -0.01474,-10e-4 -0.02217,-0.002 -0.03824,-0.003 z m 0.5178,0.18758 c -0.0089,0.0104 -0.01823,0.0204 -0.02687,0.031 0.01442,-0.01 0.01199,-0.007 0.02585,-0.0171 2.64e-4,-0.005 7.93e-4,-0.009 0.0011,-0.0139 z m -0.04806,0.0191 c -0.0029,0.004 -0.0059,0.007 -0.0088,0.0109 0.0021,0.007 0.0033,0.0101 0.0052,0.0171 0.0046,-0.003 0.004,-0.003 0.0088,-0.006 -0.0026,-0.009 0.0021,0.003 -0.0047,-0.0217 z m 0.04031,0.003 c -0.0081,0.005 -0.01574,0.01 -0.02379,0.0145 -0.0031,0.004 -0.0067,0.007 -0.0098,0.0114 -2.3e-4,-0.001 -5.29e-4,-0.003 -0.0011,-0.005 -0.003,0.002 -0.0058,0.004 -0.0088,0.006 0.0186,0.0681 0.03117,0.11307 0.02429,0.063 -0.0061,-0.0441 -0.0094,-0.0474 -0.01447,-0.0636 -0.0029,0.006 0.04597,-0.0333 0.03359,-0.0263 z m -0.08423,0.063 c -0.0058,0.003 -0.01127,0.007 -0.01707,0.0108 -0.0033,0.004 -0.0071,0.008 -0.01035,0.0129 -0.0072,0.01 0.03775,-0.0297 0.02739,-0.0238 z"
             style="fill:#89a02c;fill-opacity:1;stroke-width:0.04724703"
             id="path3740-4" />
        </g>
      </g>
      <path
         id="path3919"
         style="fill:#89a02c;fill-opacity:1;stroke-width:0.04724703"
         d="m 83.410515,112.49235 2.395971,2.36124 0.116556,1.82817 -1.279925,1e-5 c 0,0 -0.214691,-0.22774 -1.218751,-1.14012 z m 4.97801,-0.0589 c 5.29e-4,5.2e-4 0.0016,0.001 0.0021,0.002 0.0024,0.004 0.0042,0.006 0.0062,0.009 5.29e-4,10e-4 0.0021,0.004 0.0026,0.005 -0.005,-0.008 -0.0074,-0.0114 -0.01085,-0.0165 z m 3.86488,13.16095 c -2.65e-4,0.004 0.0013,-0.007 5.29e-4,0.003 1.4e-4,-5.3e-4 5.29e-4,-10e-4 5.29e-4,-0.002 v 0.0987 c -0.004,-0.0136 -0.0092,-0.0268 -0.01344,-0.0403 -5.29e-4,-0.002 -0.0013,-0.004 -0.0021,-0.006 0.0046,-0.0189 0.01193,-0.0451 0.01291,-0.0496 7.94e-4,-0.002 0.0011,-0.003 0.0016,-0.004 z m -0.077,1.59008 c -0.02379,-0.0139 0.04047,0.0128 0.07803,0.0274 v 0.0108 c -0.02604,-0.0128 -0.053,-0.0236 -0.07803,-0.0382 z m 0.07803,0.0382 v 0.006 c -0.0048,0.004 -0.0091,0.008 -0.02273,0.0108 -0.0075,-0.007 -0.0094,-0.008 -0.01551,-0.0139 0.01474,-10e-4 0.02217,-0.002 0.03824,-0.003 z m -0.5178,0.18759 c 0.0089,0.0104 0.01823,0.0204 0.02687,0.031 -0.01442,-0.01 -0.01199,-0.007 -0.02585,-0.0171 -2.65e-4,-0.005 -7.94e-4,-0.009 -0.0011,-0.0139 z m 0.04806,0.0191 c 0.0029,0.004 0.0059,0.007 0.0088,0.0109 -0.0021,0.007 -0.0033,0.0101 -0.0052,0.0171 -0.0046,-0.003 -0.004,-0.003 -0.0088,-0.006 0.0026,-0.009 -0.0021,0.003 0.0047,-0.0217 z m -0.04031,0.003 c 0.0081,0.005 0.01574,0.01 0.02379,0.0145 0.0031,0.004 0.0067,0.007 0.0098,0.0114 2.31e-4,-0.001 5.3e-4,-0.003 0.0011,-0.005 0.003,0.002 0.0058,0.004 0.0088,0.006 -0.0186,0.0681 -0.03117,0.11307 -0.02429,0.063 0.0061,-0.0441 0.0094,-0.0474 0.01447,-0.0636 0.0029,0.006 -0.04597,-0.0333 -0.03359,-0.0264 z m 0.08423,0.0631 c 0.0058,0.003 0.01127,0.007 0.01707,0.0108 0.0033,0.004 0.0071,0.008 0.01035,0.0129 0.0072,0.01 -0.03775,-0.0297 -0.02739,-0.0238 z"
         inkscape:connector-curvature="0"
         sodipodi:nodetypes="cccccccscccccccccccccccccccccccccccccccccccccccccccccscc" />
    </g>
    <path
       style="fill:#800000;fill-opacity:1;stroke-width:0.02149471"
       d="m 73.31359,126.63076 c -0.461282,-0.0341 -0.826452,-0.11212 -1.071417,-0.21411 -0.08768,-0.22329 0.07597,-0.43603 0.184984,-0.53575 0.263795,0.0983 0.690647,0.15317 1.311648,0.15055 0.936183,-0.004 1.40231,-0.17484 1.535668,-0.56297 0.07367,-0.21442 0.08254,-0.44193 0.08254,-2.11699 v -1.68738 h -0.980372 -0.980376 v -0.28358 l -0.001,-0.21256 c -0.0018,-0.0833 0.0055,-0.0731 0.168068,-0.0731 l 1.41574,0.002 h 1.582775 v 2.0935 c 0,2.29363 0.0019,2.26075 -0.139735,2.51235 -0.259977,0.46206 -0.914482,0.78805 -1.803987,0.89854 -0.303289,0.0376 -0.920075,0.0516 -1.30451,0.0294 z"
       id="path3935"
       inkscape:connector-curvature="0"
       sodipodi:nodetypes="cccccsccccccccscccc" />
    <path
       style="fill:#ff2a2a;fill-opacity:1;stroke-width:0.17857143"
       d="m 274.62378,484.32154 c -3.31558,-0.43721 -6.86117,-2.0326 -9.25756,-4.16558 -2.05753,-1.83136 -4.03898,-5.28792 -4.86245,-8.48232 -1.00612,-3.90294 -1.00095,-10.12045 0.0115,-13.82884 1.85127,-6.78082 6.47592,-11.16038 13.33666,-12.62989 2.236,-0.47893 7.11205,-0.43165 9.55549,0.0927 2.12529,0.45605 4.37198,1.21627 6.43957,2.17899 l 1.47322,0.68596 -0.0211,2.46694 c -0.0116,1.35682 -0.0719,2.68049 -0.13393,2.9415 l -0.1128,0.47456 -1.42857,-1.05491 c -5.02027,-3.70714 -10.9619,-4.91869 -16.12431,-3.28788 -3.9018,1.23258 -6.86926,4.6647 -8.05772,9.31943 -0.81296,3.18406 -0.81958,8.07769 -0.0152,11.2171 0.47851,1.86753 1.71511,4.36404 2.84878,5.75127 1.72111,2.10607 4.29306,3.55104 7.23322,4.06376 1.95502,0.34093 3.2802,0.34458 5.45449,0.015 3.20029,-0.48506 5.8809,-1.62304 8.54972,-3.62955 0.82289,-0.61867 1.54611,-1.07514 1.60715,-1.01437 0.061,0.0608 0.13674,1.35062 0.16823,2.86634 l 0.0573,2.75585 -1.57511,0.7282 c -2.14984,0.99389 -4.91548,1.90303 -7.0448,2.3158 -1.35702,0.26306 -2.45707,0.3378 -4.67056,0.31735 -1.5925,-0.0147 -3.13653,-0.0585 -3.43117,-0.0974 z"
       id="path25"
       inkscape:connector-curvature="0"
       transform="scale(0.26458333)" />
    <path
       style="fill:#000000;fill-opacity:1;stroke-width:0.04963764"
       d="m 72.280416,128.33546 c -0.705178,-0.15504 -1.491241,-0.52417 -2.046338,-0.96095 -0.843171,-0.66342 -1.477664,-1.90006 -1.638479,-3.1934 -0.07484,-0.60192 -0.06319,-1.86766 0.02231,-2.42547 0.176902,-1.15393 0.681821,-2.11987 1.511526,-2.89161 0.438274,-0.40766 0.757161,-0.6106 1.36634,-0.86957 0.620186,-0.26364 1.188663,-0.36196 2.103875,-0.36391 1.307482,-0.003 1.942906,0.12581 3.19553,0.64666 l 0.508801,0.21158 -0.0062,0.42143 c -0.0034,0.23176 -0.02032,0.57106 -0.03754,0.75394 l -0.0564,0.60817 -0.600783,-0.48286 c -0.672713,-0.4149 -0.780424,-0.63533 -1.301414,-0.81456 -0.607617,-0.20903 -1.044502,-0.28048 -1.701988,-0.27829 -1.32035,0.004 -2.293039,0.49998 -2.973215,1.51495 -0.56555,0.8439 -0.707486,1.4219 -0.702515,2.86079 0.0041,1.19746 0.06238,1.49455 0.446928,2.28022 0.276547,0.565 0.601061,0.97855 0.998245,1.27212 0.695428,0.51401 1.363987,0.72104 2.305644,0.71403 1.032451,-0.007 1.908676,-0.57741 2.744249,-1.09757 0.673526,-0.41927 0.781131,-0.50485 0.781131,-0.50485 0.01397,0.0137 0.07224,0.70989 0.08868,1.08764 l 0.02988,0.68682 -0.343297,0.15794 c -0.420845,0.19364 -1.050136,0.41513 -1.648704,0.58026 -0.40709,0.11231 -0.559106,0.1261 -1.576842,0.14311 -0.88442,0.0147 -1.199999,0.002 -1.469406,-0.0565 z"
       id="path37-8"
       inkscape:connector-curvature="0"
       sodipodi:nodetypes="ccccccccccccccccccscccccccccc" />
    <path
       style="fill:#aa0000;fill-opacity:1;stroke-width:0.17857143"
       d="m 274.57074,484.21555 c -3.4869,-0.39929 -7.83473,-2.5644 -10.03066,-4.99502 -1.69214,-1.87301 -3.31067,-5.03611 -4.02162,-7.85951 -0.88551,-3.51663 -0.89747,-9.6926 -0.0254,-13.10245 0.89156,-3.48593 2.60971,-6.49099 4.97817,-8.70682 1.56522,-1.46436 2.72158,-2.21423 4.79215,-3.10758 2.79409,-1.20551 5.3441,-1.61014 9.17194,-1.45536 3.69291,0.14931 6.73298,0.89652 10.30458,2.53273 l 1.47322,0.6749 -0.0126,2.51979 c -0.007,1.38589 -0.068,2.65983 -0.1358,2.83098 -0.10595,0.26749 -0.3568,0.15011 -1.78627,-0.83587 -3.14826,-2.17151 -6.10595,-3.31551 -9.46238,-3.65994 -2.92764,-0.30044 -5.39115,0.0995 -7.87493,1.27859 -1.19565,0.56757 -1.78155,0.9946 -2.85715,2.08244 -3.01593,3.05026 -4.30146,6.7665 -4.29843,12.42605 0.002,3.64808 0.58745,6.21095 2.05842,9.01023 2.72293,5.18174 8.37931,7.47444 15.04281,6.0973 2.82599,-0.58405 4.68893,-1.40673 7.41763,-3.27565 1.26641,-0.86738 1.61451,-1.03327 1.74284,-0.83053 0.0882,0.13934 0.16158,1.36346 0.16308,2.72028 l 0.003,2.46694 -1.47321,0.68732 c -1.81868,0.84851 -4.75449,1.83647 -6.65179,2.23848 -1.66886,0.35361 -6.43879,0.50072 -8.51739,0.2627 z"
       id="path33"
       inkscape:connector-curvature="0"
       transform="scale(0.26458333)" />
    <path
       style="fill:#aa0000;fill-opacity:1;stroke-width:0.17857143"
       d="m 273.29282,483.93771 c -2.51555,-0.5625 -5.31964,-1.9017 -7.29981,-3.4863 -3.0078,-2.40696 -5.2712,-6.89346 -5.84487,-11.5857 -0.26699,-2.18374 -0.22546,-6.77593 0.0796,-8.7996 0.63105,-4.18651 2.43223,-7.69093 5.39199,-10.4908 1.56344,-1.47898 2.70099,-2.21527 4.87409,-3.15479 2.21236,-0.95649 4.24026,-1.31325 7.50505,-1.32032 4.66412,-0.0101 6.93084,0.45643 11.39927,2.34615 l 1.81502,0.76757 -0.0222,1.52891 c -0.0122,0.8409 -0.0725,2.07182 -0.13393,2.73537 l -0.11175,1.20646 -1.875,-1.1761 c -2.39973,-1.50524 -3.1415,-1.88072 -5,-2.53099 -2.16753,-0.7584 -3.72601,-1.01757 -6.07143,-1.00967 -4.71002,0.0159 -8.17985,1.81396 -10.60621,5.49624 -2.01746,3.06173 -2.52378,5.15873 -2.50605,10.37903 0.0148,4.34434 0.22249,5.42223 1.59431,8.27267 0.98651,2.04981 2.14414,3.55017 3.56099,4.61523 2.48077,1.86483 4.86569,2.61598 8.22482,2.59047 3.68301,-0.028 6.86832,-0.94339 9.84902,-2.83049 2.40264,-1.52113 2.74793,-1.7176 2.84608,-1.61944 0.0498,0.0498 0.13853,1.21186 0.19715,2.58233 l 0.10657,2.49176 -1.22463,0.57307 c -1.50126,0.70253 -3.7461,1.50604 -5.88134,2.10515 -1.4522,0.40746 -1.99448,0.45752 -5.625,0.5192 -3.15495,0.0536 -4.2807,0.009 -5.24174,-0.20541 z"
       id="path37"
       inkscape:connector-curvature="0"
       transform="scale(0.26458333)" />
    <path
       style="fill:#aa0000;fill-opacity:1;stroke-width:0.17857143"
       d="m 285.57388,434.30745 c -1.5e-4,-1.96428 0.0259,-2.79222 0.058,-1.83985 0.032,0.95236 0.0322,2.55951 2.9e-4,3.57143 -0.0319,1.01192 -0.0581,0.23271 -0.0583,-1.73158 z"
       id="path39"
       inkscape:connector-curvature="0"
       transform="scale(0.26458333)" />
    <circle
       style="fill:#000000;fill-opacity:1;stroke-width:0.18641098"
       id="path47"
       cx="75.954666"
       cy="120.46848"
       r="0.51783472" />
    <path
       style="fill:#d40000;fill-opacity:1;stroke-width:0.08928572"
       d="m 271.24544,442.6056 c -0.29311,-0.2977 -1.32645,-1.27159 -2.29631,-2.1642 l -1.7634,-1.62293 v -5.70017 -5.70016 l 4.46174,4.40298 c 2.45395,2.42165 4.47831,4.46396 4.49857,4.53848 0.0323,0.11892 0.0389,0.11911 0.0539,0.002 0.009,-0.0737 0.76739,-0.8023 1.68447,-1.61921 2.04641,-1.82288 7.20361,-6.4455 7.53264,-6.75182 l 0.24024,-0.22365 -0.0267,5.24962 -0.0267,5.24961 -3.02601,2.4382 -3.02602,2.4382 -3.88672,0.002 -3.88672,0.002 z"
       id="path79"
       inkscape:connector-curvature="0"
       transform="scale(0.26458333)" />
  </g>
</svg>
